<svg xmlns="http://www.w3.org/2000/svg" width="240.578" height="48.152" viewBox="0 0 240.578 48.152">
  <g id="Group_4063" data-name="Group 4063" transform="translate(540 -11745)">
    <path id="Path_2280" data-name="Path 2280" d="M133.923,256.534a24.076,24.076,0,1,1-24.076-24.076,24.076,24.076,0,0,1,24.076,24.076" transform="translate(-625.771 11512.542)" fill="#cc1f21"/>
    <path id="Path_2281" data-name="Path 2281" d="M182.131,268.9a14.009,14.009,0,1,1-14.009-14.009A14.009,14.009,0,0,1,182.131,268.9" transform="translate(-662.562 11501.108)" fill="#f9ab46"/>
    <path id="Path_2282" data-name="Path 2282" d="M158.373,275.094a8.16,8.16,0,1,1-8.16-8.16,8.16,8.16,0,0,1,8.16,8.16" transform="translate(-656.07 11494.066)" fill="#4b696d"/>
    <path id="Path_19369" data-name="Path 19369" d="M7.742-2.034H7.673V8.049h-5.4V-17.5h5.4v2.632h.068a6.348,6.348,0,0,1,5.623-3.059,6.326,6.326,0,0,1,5.255,2.333,9.932,9.932,0,0,1,1.854,6.349,10.766,10.766,0,0,1-2.162,7.024A7.049,7.049,0,0,1,12.561.427,5.449,5.449,0,0,1,7.742-2.034ZM7.588-9.211v1.4a4.455,4.455,0,0,0,.957,2.957,3.115,3.115,0,0,0,2.512,1.145A3.311,3.311,0,0,0,13.92-5.135a6.89,6.89,0,0,0,1.017-4.042q0-4.614-3.589-4.614a3.37,3.37,0,0,0-2.709,1.256A5.01,5.01,0,0,0,7.588-9.211ZM30.952,0h-5.4V-25.908h5.4ZM51.634,0h-5.11V-2.512h-.068A5.7,5.7,0,0,1,41.243.427a5.452,5.452,0,0,1-4.008-1.444,5.175,5.175,0,0,1-1.461-3.854q0-5.093,6.033-5.879l4.751-.632q0-2.871-3.11-2.871A10.617,10.617,0,0,0,37.5-12.39v-4.067a13.38,13.38,0,0,1,3.085-1.025,16.215,16.215,0,0,1,3.563-.444q7.485,0,7.485,7.468ZM46.558-7.109V-8.289l-3.179.41q-2.632.342-2.632,2.375a1.963,1.963,0,0,0,.641,1.512,2.463,2.463,0,0,0,1.735.59A3.2,3.2,0,0,0,45.6-4.452,3.8,3.8,0,0,0,46.558-7.109ZM74.144-17.5,67.035,1.4Q64.471,8.22,59.31,8.22a9.9,9.9,0,0,1-3.23-.444V3.469a4.542,4.542,0,0,0,2.341.632,2.925,2.925,0,0,0,2.905-1.965l.923-2.17L55.14-17.5h5.981L64.386-6.853a13.835,13.835,0,0,1,.479,2.341h.068A16.325,16.325,0,0,1,65.5-6.819l3.3-10.681Z" transform="translate(-476.273 11778.854)" fill="#111413" stroke="#111413" stroke-width="2"/>
    <path id="Union_2" data-name="Union 2" d="M1,24.807V1H9.434Q22.117,1,22.117,12.6a11.734,11.734,0,0,1-3.461,8.882,12.764,12.764,0,0,1-9.222,3.32ZM6.362,5.366V20.457H9.019a7.178,7.178,0,0,0,5.47-2.092,7.937,7.937,0,0,0,1.984-5.694,7.2,7.2,0,0,0-1.967-5.354,7.5,7.5,0,0,0-5.52-1.951Zm34.866,19.44H36.264v-2.44H36.2a5.54,5.54,0,0,1-5.063,2.855,5.3,5.3,0,0,1-3.893-1.4,5.027,5.027,0,0,1-1.419-3.744q0-4.947,5.86-5.711L36.3,13.75q0-2.789-3.021-2.789a10.313,10.313,0,0,0-5.777,1.81V8.819a13,13,0,0,1,3-1,15.752,15.752,0,0,1,3.461-.432q7.271,0,7.271,7.255ZM36.3,17.9V16.755l-3.088.4q-2.557.332-2.557,2.308a1.907,1.907,0,0,0,.623,1.469,2.392,2.392,0,0,0,1.685.573,3.106,3.106,0,0,0,2.407-1.021A3.688,3.688,0,0,0,36.3,17.9Zm20.887,6.707a7.754,7.754,0,0,1-3.5.614q-5.545,0-5.545-5.761V11.675H45.381V7.807h2.756V4.138l5.229-1.494V7.807h3.818v3.868H53.367v6.873q0,2.656,2.108,2.656a3.555,3.555,0,0,0,1.71-.481ZM76.811,17.8H65.721q.266,3.7,4.665,3.7a9.108,9.108,0,0,0,4.931-1.328V23.96a12.953,12.953,0,0,1-6.126,1.262A8.623,8.623,0,0,1,62.8,22.939a8.624,8.624,0,0,1-2.274-6.367,9.1,9.1,0,0,1,2.457-6.707,8.186,8.186,0,0,1,6.043-2.474A7.43,7.43,0,0,1,74.777,9.6a8.5,8.5,0,0,1,2.034,5.993ZM71.946,14.58q0-3.652-2.955-3.652a2.821,2.821,0,0,0-2.183,1.046,4.747,4.747,0,0,0-1.121,2.606Zm8.4,9.778v-4.25a11.169,11.169,0,0,0,2.582,1.162,8.559,8.559,0,0,0,2.432.382,5.216,5.216,0,0,0,2.2-.382,1.234,1.234,0,0,0,.805-1.162,1.075,1.075,0,0,0-.365-.83,3.4,3.4,0,0,0-.938-.581,10.644,10.644,0,0,0-1.253-.448q-.681-.2-1.312-.448a12.566,12.566,0,0,1-1.785-.822,5.158,5.158,0,0,1-1.295-1.021,4.013,4.013,0,0,1-.8-1.345,5.366,5.366,0,0,1-.274-1.81,4.658,4.658,0,0,1,.623-2.457,5.085,5.085,0,0,1,1.66-1.685A7.586,7.586,0,0,1,85.006,7.7a12.378,12.378,0,0,1,2.781-.307,15.429,15.429,0,0,1,2.291.174,17.1,17.1,0,0,1,2.291.506v4.051a8.278,8.278,0,0,0-2.133-.872A9,9,0,0,0,88,10.961a4.947,4.947,0,0,0-.971.091,3.2,3.2,0,0,0-.805.266,1.479,1.479,0,0,0-.548.448,1.032,1.032,0,0,0-.2.623,1.15,1.15,0,0,0,.3.8,2.6,2.6,0,0,0,.78.573,7.7,7.7,0,0,0,1.071.432q.589.191,1.17.39a15.217,15.217,0,0,1,1.893.8,6.051,6.051,0,0,1,1.453,1.013,3.977,3.977,0,0,1,.93,1.361A4.839,4.839,0,0,1,93.4,19.61a4.85,4.85,0,0,1-.656,2.582A5.25,5.25,0,0,1,91,23.935a7.905,7.905,0,0,1-2.507.979,13.9,13.9,0,0,1-2.947.307A15.191,15.191,0,0,1,80.349,24.358Z" transform="translate(-393.82 11756)" fill="#4b696d" stroke="#4b696d" stroke-width="2"/>
  </g>
</svg>
